<svg class="musvg"xmlns="http://www.w3.org/2000/svg" viewBox="0 0 1440 320"><path fill="#202327" fill-opacity="1" d="M0,128L17.1,117.3C34.3,107,69,85,103,74.7C137.1,64,171,64,206,85.3C240,107,274,149,309,138.7C342.9,128,377,64,411,48C445.7,32,480,64,514,101.3C548.6,139,583,181,617,213.3C651.4,245,686,267,720,234.7C754.3,203,789,117,823,90.7C857.1,64,891,96,926,96C960,96,994,64,1029,80C1062.9,96,1097,160,1131,165.3C1165.7,171,1200,117,1234,112C1268.6,107,1303,149,1337,154.7C1371.4,160,1406,128,1423,112L1440,96L1440,320L1422.9,320C1405.7,320,1371,320,1337,320C1302.9,320,1269,320,1234,320C1200,320,1166,320,1131,320C1097.1,320,1063,320,1029,320C994.3,320,960,320,926,320C891.4,320,857,320,823,320C788.6,320,754,320,720,320C685.7,320,651,320,617,320C582.9,320,549,320,514,320C480,320,446,320,411,320C377.1,320,343,320,309,320C274.3,320,240,320,206,320C171.4,320,137,320,103,320C68.6,320,34,320,17,320L0,320Z"></path></svg>